<svg width="952" height="320" viewBox="0 0 952 320" fill="none" xmlns="http://www.w3.org/2000/svg">
<g filter="url(#filter0_d_2_103)">
<rect x="20" y="20" width="912" height="251" rx="50" fill="url(#paint0_linear_2_103)"/>
<path d="M296.5 104.167V85.3333H277.667M249.417 132.417H258.833M334.167 132.417H343.583M310.625 127.708V137.125M282.375 127.708V137.125M268.25 104.167H324.75C329.951 104.167 334.167 108.383 334.167 113.583V151.25C334.167 156.451 329.951 160.667 324.75 160.667H268.25C263.049 160.667 258.833 156.451 258.833 151.25V113.583C258.833 108.383 263.049 104.167 268.25 104.167Z" stroke="black" stroke-width="10" stroke-linecap="round" stroke-linejoin="round"/>
<path d="M403.591 88.1818L417.909 137.409H418.455L432.773 88.1818H454.182L431.136 158H405.227L382.182 88.1818H403.591ZM460.906 158V88.1818H511.224V103.455H479.861V115.455H508.634V130.727H479.861V142.727H511.088V158H460.906ZM520.625 158V88.1818H539.58V142.727H567.807V158H520.625ZM593.605 158H573.151L596.196 88.1818H622.105L645.151 158H624.696L609.423 107.409H608.878L593.605 158ZM589.787 130.455H628.241V144.636H589.787V130.455ZM651.875 158V88.1818H682.011C687.193 88.1818 691.727 89.125 695.614 91.0114C699.5 92.8977 702.523 95.6136 704.682 99.1591C706.841 102.705 707.92 106.955 707.92 111.909C707.92 116.909 706.807 121.125 704.58 124.557C702.375 127.989 699.273 130.58 695.273 132.33C691.295 134.08 686.648 134.955 681.33 134.955H663.33V120.227H677.511C679.739 120.227 681.636 119.955 683.205 119.409C684.795 118.841 686.011 117.943 686.852 116.716C687.716 115.489 688.148 113.886 688.148 111.909C688.148 109.909 687.716 108.284 686.852 107.034C686.011 105.761 684.795 104.83 683.205 104.239C681.636 103.625 679.739 103.318 677.511 103.318H670.83V158H651.875ZM692.784 125.955L710.239 158H689.648L672.602 125.955H692.784Z" fill="black"/>
<path d="M215.497 221H213.65L218.991 206.455H220.809L226.15 221H224.303L219.957 208.756H219.843L215.497 221ZM216.178 215.318H223.622V216.881H216.178V215.318ZM235.916 212.534L234.41 212.96C234.315 212.709 234.176 212.465 233.991 212.229C233.811 211.987 233.565 211.788 233.252 211.632C232.94 211.476 232.54 211.398 232.052 211.398C231.384 211.398 230.828 211.552 230.383 211.859C229.943 212.162 229.722 212.548 229.722 213.017C229.722 213.434 229.874 213.763 230.177 214.004C230.48 214.246 230.954 214.447 231.597 214.608L233.217 215.006C234.192 215.242 234.919 215.605 235.397 216.092C235.875 216.575 236.115 217.198 236.115 217.96C236.115 218.585 235.935 219.144 235.575 219.636C235.22 220.129 234.722 220.517 234.083 220.801C233.444 221.085 232.701 221.227 231.853 221.227C230.74 221.227 229.82 220.986 229.09 220.503C228.361 220.02 227.9 219.314 227.705 218.386L229.296 217.989C229.448 218.576 229.734 219.016 230.156 219.31C230.582 219.603 231.138 219.75 231.825 219.75C232.606 219.75 233.226 219.584 233.686 219.253C234.15 218.917 234.382 218.514 234.382 218.045C234.382 217.667 234.249 217.349 233.984 217.094C233.719 216.833 233.311 216.639 232.762 216.511L230.944 216.085C229.945 215.848 229.211 215.482 228.742 214.984C228.278 214.482 228.046 213.855 228.046 213.102C228.046 212.487 228.219 211.942 228.565 211.469C228.915 210.995 229.391 210.624 229.992 210.354C230.598 210.084 231.285 209.949 232.052 209.949C233.132 209.949 233.979 210.186 234.595 210.659C235.215 211.133 235.655 211.758 235.916 212.534ZM239.717 225.091C239.433 225.091 239.18 225.067 238.957 225.02C238.735 224.977 238.581 224.935 238.496 224.892L238.922 223.415C239.329 223.519 239.689 223.557 240.001 223.528C240.314 223.5 240.591 223.36 240.832 223.109C241.078 222.863 241.303 222.463 241.507 221.909L241.819 221.057L237.785 210.091H239.604L242.615 218.784H242.729L245.74 210.091H247.558L242.927 222.591C242.719 223.154 242.461 223.621 242.153 223.99C241.845 224.364 241.488 224.641 241.081 224.821C240.678 225.001 240.224 225.091 239.717 225.091ZM251.447 214.438V221H249.77V210.091H251.39V211.795H251.532C251.787 211.241 252.176 210.796 252.697 210.46C253.217 210.119 253.89 209.949 254.714 209.949C255.452 209.949 256.099 210.1 256.653 210.403C257.206 210.702 257.637 211.156 257.945 211.767C258.253 212.373 258.407 213.14 258.407 214.068V221H256.731V214.182C256.731 213.325 256.508 212.657 256.063 212.179C255.618 211.696 255.007 211.455 254.231 211.455C253.696 211.455 253.217 211.571 252.796 211.803C252.379 212.035 252.05 212.373 251.809 212.818C251.567 213.263 251.447 213.803 251.447 214.438ZM265.901 221.227C264.879 221.227 263.998 220.986 263.259 220.503C262.521 220.02 261.953 219.355 261.555 218.507C261.157 217.66 260.958 216.691 260.958 215.602C260.958 214.494 261.162 213.517 261.569 212.669C261.981 211.817 262.554 211.152 263.288 210.673C264.026 210.19 264.888 209.949 265.873 209.949C266.64 209.949 267.331 210.091 267.947 210.375C268.562 210.659 269.067 211.057 269.46 211.568C269.853 212.08 270.097 212.676 270.191 213.358H268.515C268.387 212.861 268.103 212.42 267.663 212.037C267.227 211.649 266.64 211.455 265.901 211.455C265.248 211.455 264.675 211.625 264.183 211.966C263.695 212.302 263.314 212.778 263.039 213.393C262.769 214.004 262.634 214.722 262.634 215.545C262.634 216.388 262.767 217.122 263.032 217.747C263.302 218.372 263.681 218.857 264.169 219.203C264.661 219.549 265.239 219.722 265.901 219.722C266.337 219.722 266.732 219.646 267.088 219.494C267.443 219.343 267.743 219.125 267.99 218.841C268.236 218.557 268.411 218.216 268.515 217.818H270.191C270.097 218.462 269.862 219.042 269.488 219.558C269.119 220.07 268.629 220.477 268.018 220.78C267.412 221.078 266.706 221.227 265.901 221.227ZM274.318 214.438V221H272.642V206.455H274.318V211.795H274.46C274.715 211.232 275.099 210.785 275.61 210.453C276.126 210.117 276.813 209.949 277.67 209.949C278.413 209.949 279.064 210.098 279.623 210.396C280.182 210.69 280.615 211.142 280.923 211.753C281.235 212.359 281.392 213.131 281.392 214.068V221H279.715V214.182C279.715 213.315 279.49 212.645 279.041 212.172C278.596 211.694 277.978 211.455 277.187 211.455C276.638 211.455 276.145 211.571 275.71 211.803C275.279 212.035 274.938 212.373 274.687 212.818C274.441 213.263 274.318 213.803 274.318 214.438ZM284.458 221V210.091H286.077V211.739H286.191C286.39 211.199 286.75 210.761 287.27 210.425C287.791 210.089 288.378 209.92 289.032 209.92C289.155 209.92 289.309 209.923 289.493 209.928C289.678 209.932 289.818 209.939 289.912 209.949V211.653C289.856 211.639 289.725 211.618 289.522 211.589C289.323 211.556 289.112 211.54 288.89 211.54C288.359 211.54 287.886 211.651 287.469 211.874C287.057 212.091 286.731 212.394 286.489 212.783C286.252 213.166 286.134 213.604 286.134 214.097V221H284.458ZM295.999 221.227C295.014 221.227 294.15 220.993 293.407 220.524C292.668 220.055 292.09 219.4 291.674 218.557C291.262 217.714 291.056 216.729 291.056 215.602C291.056 214.466 291.262 213.474 291.674 212.626C292.09 211.779 292.668 211.121 293.407 210.652C294.15 210.183 295.014 209.949 295.999 209.949C296.984 209.949 297.846 210.183 298.584 210.652C299.328 211.121 299.905 211.779 300.317 212.626C300.734 213.474 300.942 214.466 300.942 215.602C300.942 216.729 300.734 217.714 300.317 218.557C299.905 219.4 299.328 220.055 298.584 220.524C297.846 220.993 296.984 221.227 295.999 221.227ZM295.999 219.722C296.747 219.722 297.363 219.53 297.846 219.146C298.329 218.763 298.686 218.259 298.918 217.634C299.15 217.009 299.266 216.331 299.266 215.602C299.266 214.873 299.15 214.194 298.918 213.564C298.686 212.934 298.329 212.425 297.846 212.037C297.363 211.649 296.747 211.455 295.999 211.455C295.251 211.455 294.635 211.649 294.153 212.037C293.67 212.425 293.312 212.934 293.08 213.564C292.848 214.194 292.732 214.873 292.732 215.602C292.732 216.331 292.848 217.009 293.08 217.634C293.312 218.259 293.67 218.763 294.153 219.146C294.635 219.53 295.251 219.722 295.999 219.722ZM305.177 214.438V221H303.501V210.091H305.12V211.795H305.262C305.518 211.241 305.906 210.796 306.427 210.46C306.948 210.119 307.62 209.949 308.444 209.949C309.183 209.949 309.829 210.1 310.383 210.403C310.937 210.702 311.368 211.156 311.676 211.767C311.983 212.373 312.137 213.14 312.137 214.068V221H310.461V214.182C310.461 213.325 310.239 212.657 309.794 212.179C309.348 211.696 308.738 211.455 307.961 211.455C307.426 211.455 306.948 211.571 306.526 211.803C306.11 212.035 305.781 212.373 305.539 212.818C305.298 213.263 305.177 213.803 305.177 214.438ZM319.632 221.227C318.647 221.227 317.783 220.993 317.04 220.524C316.301 220.055 315.723 219.4 315.307 218.557C314.895 217.714 314.689 216.729 314.689 215.602C314.689 214.466 314.895 213.474 315.307 212.626C315.723 211.779 316.301 211.121 317.04 210.652C317.783 210.183 318.647 209.949 319.632 209.949C320.617 209.949 321.479 210.183 322.217 210.652C322.961 211.121 323.538 211.779 323.95 212.626C324.367 213.474 324.575 214.466 324.575 215.602C324.575 216.729 324.367 217.714 323.95 218.557C323.538 219.4 322.961 220.055 322.217 220.524C321.479 220.993 320.617 221.227 319.632 221.227ZM319.632 219.722C320.38 219.722 320.996 219.53 321.479 219.146C321.961 218.763 322.319 218.259 322.551 217.634C322.783 217.009 322.899 216.331 322.899 215.602C322.899 214.873 322.783 214.194 322.551 213.564C322.319 212.934 321.961 212.425 321.479 212.037C320.996 211.649 320.38 211.455 319.632 211.455C318.884 211.455 318.268 211.649 317.785 212.037C317.302 212.425 316.945 212.934 316.713 213.564C316.481 214.194 316.365 214.873 316.365 215.602C316.365 216.331 316.481 217.009 316.713 217.634C316.945 218.259 317.302 218.763 317.785 219.146C318.268 219.53 318.884 219.722 319.632 219.722ZM334.009 216.54V210.091H335.685V221H334.009V219.153H333.895C333.639 219.707 333.242 220.179 332.702 220.567C332.162 220.95 331.48 221.142 330.656 221.142C329.975 221.142 329.369 220.993 328.838 220.695C328.308 220.392 327.891 219.937 327.588 219.331C327.285 218.72 327.134 217.951 327.134 217.023V210.091H328.81V216.909C328.81 217.705 329.032 218.339 329.477 218.812C329.927 219.286 330.5 219.523 331.196 219.523C331.613 219.523 332.037 219.416 332.468 219.203C332.903 218.99 333.268 218.663 333.561 218.223C333.86 217.783 334.009 217.222 334.009 216.54ZM346.482 212.534L344.976 212.96C344.882 212.709 344.742 212.465 344.557 212.229C344.377 211.987 344.131 211.788 343.819 211.632C343.506 211.476 343.106 211.398 342.618 211.398C341.951 211.398 341.394 211.552 340.949 211.859C340.509 212.162 340.289 212.548 340.289 213.017C340.289 213.434 340.44 213.763 340.743 214.004C341.046 214.246 341.52 214.447 342.164 214.608L343.783 215.006C344.759 215.242 345.485 215.605 345.964 216.092C346.442 216.575 346.681 217.198 346.681 217.96C346.681 218.585 346.501 219.144 346.141 219.636C345.786 220.129 345.289 220.517 344.65 220.801C344.01 221.085 343.267 221.227 342.42 221.227C341.307 221.227 340.386 220.986 339.657 220.503C338.928 220.02 338.466 219.314 338.272 218.386L339.863 217.989C340.014 218.576 340.301 219.016 340.722 219.31C341.148 219.603 341.705 219.75 342.391 219.75C343.172 219.75 343.793 219.584 344.252 219.253C344.716 218.917 344.948 218.514 344.948 218.045C344.948 217.667 344.815 217.349 344.55 217.094C344.285 216.833 343.878 216.639 343.329 216.511L341.51 216.085C340.511 215.848 339.778 215.482 339.309 214.984C338.845 214.482 338.613 213.855 338.613 213.102C338.613 212.487 338.786 211.942 339.131 211.469C339.482 210.995 339.957 210.624 340.559 210.354C341.165 210.084 341.851 209.949 342.618 209.949C343.698 209.949 344.546 210.186 345.161 210.659C345.781 211.133 346.222 211.758 346.482 212.534ZM351.704 219.011L351.59 219.778C351.51 220.318 351.387 220.896 351.221 221.511C351.06 222.127 350.892 222.707 350.717 223.251C350.542 223.796 350.397 224.229 350.284 224.551H349.005C349.067 224.248 349.147 223.848 349.247 223.351C349.346 222.854 349.445 222.297 349.545 221.682C349.649 221.071 349.734 220.446 349.801 219.807L349.886 219.011H351.704ZM362.111 214.438V221H360.434V206.455H362.111V211.795H362.253C362.508 211.232 362.892 210.785 363.403 210.453C363.919 210.117 364.606 209.949 365.463 209.949C366.206 209.949 366.857 210.098 367.416 210.396C367.975 210.69 368.408 211.142 368.716 211.753C369.028 212.359 369.184 213.131 369.184 214.068V221H367.508V214.182C367.508 213.315 367.283 212.645 366.834 212.172C366.389 211.694 365.771 211.455 364.98 211.455C364.431 211.455 363.938 211.571 363.503 211.803C363.072 212.035 362.731 212.373 362.48 212.818C362.234 213.263 362.111 213.803 362.111 214.438ZM372.251 221V210.091H373.927V221H372.251ZM373.103 208.273C372.776 208.273 372.495 208.161 372.258 207.939C372.026 207.716 371.91 207.449 371.91 207.136C371.91 206.824 372.026 206.556 372.258 206.334C372.495 206.111 372.776 206 373.103 206C373.43 206 373.709 206.111 373.941 206.334C374.178 206.556 374.296 206.824 374.296 207.136C374.296 207.449 374.178 207.716 373.941 207.939C373.709 208.161 373.43 208.273 373.103 208.273ZM381.4 225.318C380.591 225.318 379.895 225.214 379.312 225.006C378.73 224.802 378.245 224.532 377.856 224.196C377.473 223.865 377.167 223.509 376.94 223.131L378.275 222.193C378.427 222.392 378.619 222.619 378.851 222.875C379.083 223.135 379.4 223.36 379.802 223.55C380.21 223.744 380.742 223.841 381.4 223.841C382.281 223.841 383.008 223.628 383.581 223.202C384.154 222.776 384.44 222.108 384.44 221.199V218.983H384.298C384.175 219.182 384 219.428 383.773 219.722C383.55 220.01 383.228 220.268 382.807 220.496C382.39 220.718 381.827 220.83 381.116 220.83C380.236 220.83 379.445 220.621 378.744 220.205C378.048 219.788 377.497 219.182 377.089 218.386C376.687 217.591 376.486 216.625 376.486 215.489C376.486 214.371 376.682 213.398 377.075 212.57C377.468 211.736 378.015 211.092 378.716 210.638C379.416 210.179 380.226 209.949 381.145 209.949C381.855 209.949 382.418 210.067 382.835 210.304C383.256 210.536 383.578 210.801 383.801 211.099C384.028 211.393 384.203 211.634 384.327 211.824H384.497V210.091H386.116V221.312C386.116 222.25 385.903 223.012 385.477 223.599C385.056 224.191 384.488 224.625 383.773 224.899C383.062 225.179 382.272 225.318 381.4 225.318ZM381.344 219.324C382.016 219.324 382.584 219.17 383.048 218.862C383.512 218.554 383.865 218.112 384.106 217.534C384.348 216.956 384.469 216.265 384.469 215.46C384.469 214.674 384.35 213.981 384.113 213.379C383.877 212.778 383.526 212.307 383.062 211.966C382.598 211.625 382.025 211.455 381.344 211.455C380.633 211.455 380.041 211.634 379.568 211.994C379.099 212.354 378.747 212.837 378.51 213.443C378.278 214.049 378.162 214.722 378.162 215.46C378.162 216.218 378.28 216.888 378.517 217.47C378.758 218.048 379.113 218.502 379.582 218.834C380.056 219.161 380.643 219.324 381.344 219.324ZM390.861 214.438V221H389.184V206.455H390.861V211.795H391.003C391.258 211.232 391.642 210.785 392.153 210.453C392.669 210.117 393.356 209.949 394.213 209.949C394.956 209.949 395.607 210.098 396.166 210.396C396.725 210.69 397.158 211.142 397.466 211.753C397.778 212.359 397.934 213.131 397.934 214.068V221H396.258V214.182C396.258 213.315 396.033 212.645 395.584 212.172C395.139 211.694 394.521 211.455 393.73 211.455C393.181 211.455 392.688 211.571 392.253 211.803C391.822 212.035 391.481 212.373 391.23 212.818C390.984 213.263 390.861 213.803 390.861 214.438ZM407.251 213.983V215.545H400.887V213.983H407.251ZM410.2 225.091V210.091H411.819V211.824H412.018C412.141 211.634 412.312 211.393 412.53 211.099C412.752 210.801 413.069 210.536 413.481 210.304C413.898 210.067 414.461 209.949 415.172 209.949C416.09 209.949 416.9 210.179 417.601 210.638C418.301 211.097 418.848 211.748 419.241 212.591C419.634 213.434 419.831 214.428 419.831 215.574C419.831 216.729 419.634 217.731 419.241 218.578C418.848 219.421 418.304 220.074 417.608 220.538C416.912 220.998 416.109 221.227 415.2 221.227C414.499 221.227 413.938 221.111 413.517 220.879C413.095 220.643 412.771 220.375 412.544 220.077C412.317 219.774 412.141 219.523 412.018 219.324H411.876V225.091H410.2ZM411.848 215.545C411.848 216.369 411.969 217.096 412.21 217.726C412.452 218.351 412.804 218.841 413.268 219.196C413.732 219.546 414.3 219.722 414.973 219.722C415.674 219.722 416.258 219.537 416.727 219.168C417.201 218.794 417.556 218.292 417.792 217.662C418.034 217.027 418.155 216.322 418.155 215.545C418.155 214.778 418.036 214.087 417.8 213.472C417.568 212.851 417.215 212.361 416.741 212.001C416.273 211.637 415.683 211.455 414.973 211.455C414.291 211.455 413.718 211.627 413.254 211.973C412.79 212.314 412.44 212.792 412.203 213.408C411.966 214.018 411.848 214.731 411.848 215.545ZM426.961 221.227C425.91 221.227 425.004 220.995 424.241 220.531C423.484 220.062 422.899 219.409 422.487 218.571C422.08 217.728 421.876 216.748 421.876 215.631C421.876 214.513 422.08 213.528 422.487 212.676C422.899 211.819 423.472 211.152 424.206 210.673C424.944 210.19 425.806 209.949 426.791 209.949C427.359 209.949 427.92 210.044 428.474 210.233C429.028 210.422 429.532 210.73 429.987 211.156C430.442 211.578 430.804 212.136 431.074 212.832C431.344 213.528 431.479 214.385 431.479 215.403V216.114H423.069V214.665H429.774C429.774 214.049 429.651 213.5 429.405 213.017C429.163 212.534 428.818 212.153 428.368 211.874C427.923 211.594 427.397 211.455 426.791 211.455C426.123 211.455 425.546 211.62 425.058 211.952C424.575 212.278 424.203 212.705 423.943 213.23C423.683 213.756 423.552 214.319 423.552 214.92V215.886C423.552 216.71 423.694 217.409 423.979 217.982C424.267 218.55 424.667 218.983 425.179 219.281C425.69 219.575 426.284 219.722 426.961 219.722C427.402 219.722 427.8 219.66 428.155 219.537C428.515 219.409 428.825 219.22 429.085 218.969C429.345 218.713 429.547 218.396 429.689 218.017L431.308 218.472C431.138 219.021 430.851 219.504 430.449 219.92C430.046 220.332 429.549 220.654 428.957 220.886C428.365 221.114 427.7 221.227 426.961 221.227ZM434.028 221V210.091H435.648V211.739H435.761C435.96 211.199 436.32 210.761 436.841 210.425C437.362 210.089 437.949 209.92 438.602 209.92C438.725 209.92 438.879 209.923 439.064 209.928C439.248 209.932 439.388 209.939 439.483 209.949V211.653C439.426 211.639 439.296 211.618 439.092 211.589C438.893 211.556 438.683 211.54 438.46 211.54C437.93 211.54 437.456 211.651 437.04 211.874C436.628 212.091 436.301 212.394 436.059 212.783C435.823 213.166 435.704 213.604 435.704 214.097V221H434.028ZM447.011 210.091V211.511H441.131V210.091H447.011ZM442.892 221V208.585C442.892 207.96 443.039 207.439 443.332 207.023C443.626 206.606 444.007 206.294 444.476 206.085C444.944 205.877 445.439 205.773 445.96 205.773C446.372 205.773 446.708 205.806 446.969 205.872C447.229 205.938 447.423 206 447.551 206.057L447.068 207.506C446.983 207.477 446.864 207.442 446.713 207.399C446.566 207.357 446.372 207.335 446.131 207.335C445.577 207.335 445.176 207.475 444.93 207.754C444.689 208.034 444.568 208.443 444.568 208.983V221H442.892ZM453.343 221.227C452.358 221.227 451.494 220.993 450.751 220.524C450.012 220.055 449.434 219.4 449.018 218.557C448.606 217.714 448.4 216.729 448.4 215.602C448.4 214.466 448.606 213.474 449.018 212.626C449.434 211.779 450.012 211.121 450.751 210.652C451.494 210.183 452.358 209.949 453.343 209.949C454.328 209.949 455.189 210.183 455.928 210.652C456.671 211.121 457.249 211.779 457.661 212.626C458.078 213.474 458.286 214.466 458.286 215.602C458.286 216.729 458.078 217.714 457.661 218.557C457.249 219.4 456.671 220.055 455.928 220.524C455.189 220.993 454.328 221.227 453.343 221.227ZM453.343 219.722C454.091 219.722 454.706 219.53 455.189 219.146C455.672 218.763 456.03 218.259 456.262 217.634C456.494 217.009 456.61 216.331 456.61 215.602C456.61 214.873 456.494 214.194 456.262 213.564C456.03 212.934 455.672 212.425 455.189 212.037C454.706 211.649 454.091 211.455 453.343 211.455C452.595 211.455 451.979 211.649 451.496 212.037C451.013 212.425 450.656 212.934 450.424 213.564C450.192 214.194 450.076 214.873 450.076 215.602C450.076 216.331 450.192 217.009 450.424 217.634C450.656 218.259 451.013 218.763 451.496 219.146C451.979 219.53 452.595 219.722 453.343 219.722ZM460.845 221V210.091H462.464V211.739H462.578C462.776 211.199 463.136 210.761 463.657 210.425C464.178 210.089 464.765 209.92 465.419 209.92C465.542 209.92 465.695 209.923 465.88 209.928C466.065 209.932 466.204 209.939 466.299 209.949V211.653C466.242 211.639 466.112 211.618 465.909 211.589C465.71 211.556 465.499 211.54 465.276 211.54C464.746 211.54 464.273 211.651 463.856 211.874C463.444 212.091 463.117 212.394 462.876 212.783C462.639 213.166 462.521 213.604 462.521 214.097V221H460.845ZM468.286 221V210.091H469.905V211.795H470.047C470.275 211.213 470.642 210.761 471.148 210.439C471.655 210.112 472.263 209.949 472.974 209.949C473.693 209.949 474.292 210.112 474.77 210.439C475.253 210.761 475.63 211.213 475.9 211.795H476.013C476.293 211.232 476.712 210.785 477.27 210.453C477.829 210.117 478.499 209.949 479.28 209.949C480.256 209.949 481.054 210.254 481.674 210.865C482.294 211.471 482.604 212.416 482.604 213.699V221H480.928V213.699C480.928 212.894 480.708 212.319 480.268 211.973C479.827 211.627 479.309 211.455 478.712 211.455C477.945 211.455 477.351 211.687 476.93 212.151C476.508 212.61 476.297 213.192 476.297 213.898V221H474.593V213.528C474.593 212.908 474.392 212.409 473.989 212.03C473.587 211.646 473.068 211.455 472.434 211.455C471.998 211.455 471.591 211.571 471.212 211.803C470.838 212.035 470.535 212.357 470.303 212.768C470.076 213.176 469.962 213.647 469.962 214.182V221H468.286ZM488.879 221.256C488.188 221.256 487.56 221.125 486.997 220.865C486.434 220.6 485.986 220.219 485.655 219.722C485.323 219.22 485.157 218.614 485.157 217.903C485.157 217.278 485.281 216.772 485.527 216.384C485.773 215.991 486.102 215.683 486.514 215.46C486.926 215.238 487.381 215.072 487.878 214.963C488.38 214.849 488.884 214.759 489.39 214.693C490.053 214.608 490.591 214.544 491.003 214.501C491.419 214.454 491.722 214.376 491.912 214.267C492.106 214.158 492.203 213.969 492.203 213.699V213.642C492.203 212.941 492.011 212.397 491.628 212.009C491.249 211.62 490.674 211.426 489.902 211.426C489.102 211.426 488.474 211.601 488.02 211.952C487.565 212.302 487.246 212.676 487.061 213.074L485.47 212.506C485.754 211.843 486.133 211.327 486.606 210.957C487.085 210.583 487.605 210.323 488.169 210.176C488.737 210.025 489.296 209.949 489.845 209.949C490.195 209.949 490.598 209.991 491.052 210.077C491.512 210.157 491.954 210.325 492.381 210.581C492.811 210.837 493.169 211.223 493.453 211.739C493.737 212.255 493.879 212.946 493.879 213.812V221H492.203V219.523H492.118C492.004 219.759 491.815 220.013 491.55 220.283C491.284 220.553 490.932 220.782 490.491 220.972C490.051 221.161 489.514 221.256 488.879 221.256ZM489.135 219.75C489.798 219.75 490.356 219.62 490.811 219.359C491.27 219.099 491.616 218.763 491.848 218.351C492.085 217.939 492.203 217.506 492.203 217.051V215.517C492.132 215.602 491.976 215.68 491.734 215.751C491.497 215.818 491.223 215.877 490.91 215.929C490.603 215.976 490.302 216.019 490.008 216.057C489.72 216.09 489.485 216.118 489.305 216.142C488.87 216.199 488.462 216.291 488.084 216.419C487.71 216.542 487.407 216.729 487.175 216.98C486.947 217.226 486.834 217.562 486.834 217.989C486.834 218.571 487.049 219.011 487.48 219.31C487.916 219.603 488.467 219.75 489.135 219.75ZM498.615 214.438V221H496.938V210.091H498.558V211.795H498.7C498.955 211.241 499.344 210.796 499.865 210.46C500.385 210.119 501.058 209.949 501.882 209.949C502.62 209.949 503.267 210.1 503.82 210.403C504.374 210.702 504.805 211.156 505.113 211.767C505.421 212.373 505.575 213.14 505.575 214.068V221H503.899V214.182C503.899 213.325 503.676 212.657 503.231 212.179C502.786 211.696 502.175 211.455 501.399 211.455C500.864 211.455 500.385 211.571 499.964 211.803C499.547 212.035 499.218 212.373 498.977 212.818C498.735 213.263 498.615 213.803 498.615 214.438ZM513.069 221.227C512.047 221.227 511.166 220.986 510.427 220.503C509.689 220.02 509.121 219.355 508.723 218.507C508.325 217.66 508.126 216.691 508.126 215.602C508.126 214.494 508.33 213.517 508.737 212.669C509.149 211.817 509.722 211.152 510.456 210.673C511.194 210.19 512.056 209.949 513.041 209.949C513.808 209.949 514.499 210.091 515.115 210.375C515.73 210.659 516.235 211.057 516.628 211.568C517.021 212.08 517.265 212.676 517.359 213.358H515.683C515.555 212.861 515.271 212.42 514.831 212.037C514.395 211.649 513.808 211.455 513.069 211.455C512.416 211.455 511.843 211.625 511.351 211.966C510.863 212.302 510.482 212.778 510.207 213.393C509.937 214.004 509.802 214.722 509.802 215.545C509.802 216.388 509.935 217.122 510.2 217.747C510.47 218.372 510.849 218.857 511.336 219.203C511.829 219.549 512.407 219.722 513.069 219.722C513.505 219.722 513.9 219.646 514.256 219.494C514.611 219.343 514.911 219.125 515.157 218.841C515.404 218.557 515.579 218.216 515.683 217.818H517.359C517.265 218.462 517.03 219.042 516.656 219.558C516.287 220.07 515.797 220.477 515.186 220.78C514.58 221.078 513.874 221.227 513.069 221.227ZM524.383 221.227C523.332 221.227 522.425 220.995 521.663 220.531C520.906 220.062 520.321 219.409 519.909 218.571C519.502 217.728 519.298 216.748 519.298 215.631C519.298 214.513 519.502 213.528 519.909 212.676C520.321 211.819 520.894 211.152 521.628 210.673C522.366 210.19 523.228 209.949 524.213 209.949C524.781 209.949 525.342 210.044 525.896 210.233C526.45 210.422 526.954 210.73 527.409 211.156C527.863 211.578 528.226 212.136 528.496 212.832C528.765 213.528 528.9 214.385 528.9 215.403V216.114H520.491V214.665H527.196C527.196 214.049 527.073 213.5 526.827 213.017C526.585 212.534 526.239 212.153 525.79 211.874C525.345 211.594 524.819 211.455 524.213 211.455C523.545 211.455 522.968 211.62 522.48 211.952C521.997 212.278 521.625 212.705 521.365 213.23C521.104 213.756 520.974 214.319 520.974 214.92V215.886C520.974 216.71 521.116 217.409 521.4 217.982C521.689 218.55 522.089 218.983 522.601 219.281C523.112 219.575 523.706 219.722 524.383 219.722C524.824 219.722 525.221 219.66 525.577 219.537C525.936 219.409 526.247 219.22 526.507 218.969C526.767 218.713 526.969 218.396 527.111 218.017L528.73 218.472C528.559 219.021 528.273 219.504 527.871 219.92C527.468 220.332 526.971 220.654 526.379 220.886C525.787 221.114 525.122 221.227 524.383 221.227ZM537.302 206.455H539.405L544.348 218.528H544.518L549.461 206.455H551.564V221H549.916V209.949H549.774L545.229 221H543.638L539.092 209.949H538.95V221H537.302V206.455ZM554.868 221V210.091H556.544V221H554.868ZM555.72 208.273C555.394 208.273 555.112 208.161 554.875 207.939C554.643 207.716 554.527 207.449 554.527 207.136C554.527 206.824 554.643 206.556 554.875 206.334C555.112 206.111 555.394 206 555.72 206C556.047 206 556.326 206.111 556.558 206.334C556.795 206.556 556.914 206.824 556.914 207.136C556.914 207.449 556.795 207.716 556.558 207.939C556.326 208.161 556.047 208.273 555.72 208.273ZM561.29 214.438V221H559.614V210.091H561.233V211.795H561.376C561.631 211.241 562.019 210.796 562.54 210.46C563.061 210.119 563.733 209.949 564.557 209.949C565.296 209.949 565.942 210.1 566.496 210.403C567.05 210.702 567.481 211.156 567.789 211.767C568.097 212.373 568.251 213.14 568.251 214.068V221H566.574V214.182C566.574 213.325 566.352 212.657 565.907 212.179C565.462 211.696 564.851 211.455 564.074 211.455C563.539 211.455 563.061 211.571 562.64 211.803C562.223 212.035 561.894 212.373 561.653 212.818C561.411 213.263 561.29 213.803 561.29 214.438ZM575.887 221.227C574.836 221.227 573.929 220.995 573.167 220.531C572.41 220.062 571.825 219.409 571.413 218.571C571.006 217.728 570.802 216.748 570.802 215.631C570.802 214.513 571.006 213.528 571.413 212.676C571.825 211.819 572.398 211.152 573.132 210.673C573.87 210.19 574.732 209.949 575.717 209.949C576.285 209.949 576.846 210.044 577.4 210.233C577.954 210.422 578.458 210.73 578.913 211.156C579.367 211.578 579.73 212.136 579.999 212.832C580.269 213.528 580.404 214.385 580.404 215.403V216.114H571.995V214.665H578.7C578.7 214.049 578.577 213.5 578.33 213.017C578.089 212.534 577.743 212.153 577.294 211.874C576.848 211.594 576.323 211.455 575.717 211.455C575.049 211.455 574.472 211.62 573.984 211.952C573.501 212.278 573.129 212.705 572.869 213.23C572.608 213.756 572.478 214.319 572.478 214.92V215.886C572.478 216.71 572.62 217.409 572.904 217.982C573.193 218.55 573.593 218.983 574.105 219.281C574.616 219.575 575.21 219.722 575.887 219.722C576.328 219.722 576.725 219.66 577.08 219.537C577.44 219.409 577.75 219.22 578.011 218.969C578.271 218.713 578.472 218.396 578.615 218.017L580.234 218.472C580.063 219.021 579.777 219.504 579.374 219.92C578.972 220.332 578.475 220.654 577.883 220.886C577.291 221.114 576.626 221.227 575.887 221.227ZM587.386 221.227C586.363 221.227 585.482 220.986 584.744 220.503C584.005 220.02 583.437 219.355 583.039 218.507C582.642 217.66 582.443 216.691 582.443 215.602C582.443 214.494 582.646 213.517 583.053 212.669C583.465 211.817 584.038 211.152 584.772 210.673C585.511 210.19 586.373 209.949 587.357 209.949C588.124 209.949 588.816 210.091 589.431 210.375C590.047 210.659 590.551 211.057 590.944 211.568C591.337 212.08 591.581 212.676 591.676 213.358H589.999C589.872 212.861 589.588 212.42 589.147 212.037C588.712 211.649 588.124 211.455 587.386 211.455C586.732 211.455 586.16 211.625 585.667 211.966C585.179 212.302 584.798 212.778 584.524 213.393C584.254 214.004 584.119 214.722 584.119 215.545C584.119 216.388 584.251 217.122 584.517 217.747C584.786 218.372 585.165 218.857 585.653 219.203C586.145 219.549 586.723 219.722 587.386 219.722C587.821 219.722 588.217 219.646 588.572 219.494C588.927 219.343 589.228 219.125 589.474 218.841C589.72 218.557 589.895 218.216 589.999 217.818H591.676C591.581 218.462 591.347 219.042 590.972 219.558C590.603 220.07 590.113 220.477 589.502 220.78C588.896 221.078 588.191 221.227 587.386 221.227ZM594.126 221V210.091H595.745V211.739H595.859C596.058 211.199 596.418 210.761 596.938 210.425C597.459 210.089 598.046 209.92 598.7 209.92C598.823 209.92 598.977 209.923 599.161 209.928C599.346 209.932 599.486 209.939 599.58 209.949V211.653C599.524 211.639 599.393 211.618 599.19 211.589C598.991 211.556 598.78 211.54 598.558 211.54C598.027 211.54 597.554 211.651 597.137 211.874C596.725 212.091 596.399 212.394 596.157 212.783C595.92 213.166 595.802 213.604 595.802 214.097V221H594.126ZM604.778 221.256C604.086 221.256 603.459 221.125 602.895 220.865C602.332 220.6 601.885 220.219 601.553 219.722C601.222 219.22 601.056 218.614 601.056 217.903C601.056 217.278 601.179 216.772 601.425 216.384C601.671 215.991 602.001 215.683 602.412 215.46C602.824 215.238 603.279 215.072 603.776 214.963C604.278 214.849 604.782 214.759 605.289 214.693C605.952 214.608 606.489 214.544 606.901 214.501C607.318 214.454 607.621 214.376 607.81 214.267C608.004 214.158 608.101 213.969 608.101 213.699V213.642C608.101 212.941 607.91 212.397 607.526 212.009C607.147 211.62 606.572 211.426 605.8 211.426C605 211.426 604.373 211.601 603.918 211.952C603.464 212.302 603.144 212.676 602.959 213.074L601.368 212.506C601.653 211.843 602.031 211.327 602.505 210.957C602.983 210.583 603.504 210.323 604.067 210.176C604.635 210.025 605.194 209.949 605.743 209.949C606.094 209.949 606.496 209.991 606.951 210.077C607.41 210.157 607.853 210.325 608.279 210.581C608.71 210.837 609.067 211.223 609.351 211.739C609.635 212.255 609.778 212.946 609.778 213.812V221H608.101V219.523H608.016C607.903 219.759 607.713 220.013 607.448 220.283C607.183 220.553 606.83 220.782 606.39 220.972C605.949 221.161 605.412 221.256 604.778 221.256ZM605.033 219.75C605.696 219.75 606.255 219.62 606.709 219.359C607.169 219.099 607.514 218.763 607.746 218.351C607.983 217.939 608.101 217.506 608.101 217.051V215.517C608.03 215.602 607.874 215.68 607.633 215.751C607.396 215.818 607.121 215.877 606.809 215.929C606.501 215.976 606.2 216.019 605.907 216.057C605.618 216.09 605.384 216.118 605.204 216.142C604.768 216.199 604.361 216.291 603.982 216.419C603.608 216.542 603.305 216.729 603.073 216.98C602.846 217.226 602.732 217.562 602.732 217.989C602.732 218.571 602.948 219.011 603.378 219.31C603.814 219.603 604.366 219.75 605.033 219.75ZM617.695 210.091V211.511H611.814V210.091H617.695ZM613.575 221V208.585C613.575 207.96 613.722 207.439 614.016 207.023C614.309 206.606 614.691 206.294 615.159 206.085C615.628 205.877 616.123 205.773 616.644 205.773C617.056 205.773 617.392 205.806 617.652 205.872C617.913 205.938 618.107 206 618.235 206.057L617.752 207.506C617.666 207.477 617.548 207.442 617.396 207.399C617.25 207.357 617.056 207.335 616.814 207.335C616.26 207.335 615.86 207.475 615.614 207.754C615.372 208.034 615.252 208.443 615.252 208.983V221H613.575ZM624.788 210.091V211.511H619.135V210.091H624.788ZM620.782 207.477H622.459V217.875C622.459 218.348 622.527 218.704 622.665 218.94C622.807 219.172 622.987 219.329 623.204 219.409C623.427 219.485 623.661 219.523 623.907 219.523C624.092 219.523 624.244 219.513 624.362 219.494C624.48 219.471 624.575 219.452 624.646 219.438L624.987 220.943C624.873 220.986 624.715 221.028 624.511 221.071C624.308 221.118 624.05 221.142 623.737 221.142C623.264 221.142 622.8 221.04 622.345 220.837C621.895 220.633 621.521 220.323 621.223 219.906C620.929 219.49 620.782 218.964 620.782 218.33V207.477ZM644.696 206.455V221H642.991L635.065 209.58H634.923V221H633.162V206.455H634.866L642.821 217.903H642.963V206.455H644.696ZM648.22 221V206.455H653.135C654.276 206.455 655.209 206.661 655.933 207.072C656.663 207.48 657.202 208.031 657.553 208.727C657.903 209.423 658.078 210.2 658.078 211.057C658.078 211.914 657.903 212.693 657.553 213.393C657.207 214.094 656.672 214.653 655.948 215.07C655.223 215.482 654.295 215.688 653.164 215.688H649.641V214.125H653.107C653.888 214.125 654.515 213.99 654.989 213.72C655.462 213.45 655.806 213.086 656.019 212.626C656.236 212.162 656.345 211.639 656.345 211.057C656.345 210.474 656.236 209.954 656.019 209.494C655.806 209.035 655.46 208.675 654.982 208.415C654.503 208.15 653.869 208.017 653.078 208.017H649.982V221H648.22ZM672.62 211H670.859C670.755 210.493 670.572 210.048 670.312 209.665C670.056 209.281 669.744 208.959 669.374 208.699C669.01 208.434 668.605 208.235 668.16 208.102C667.715 207.97 667.251 207.903 666.768 207.903C665.887 207.903 665.089 208.126 664.374 208.571C663.664 209.016 663.098 209.672 662.677 210.538C662.26 211.405 662.052 212.468 662.052 213.727C662.052 214.987 662.26 216.05 662.677 216.916C663.098 217.783 663.664 218.438 664.374 218.884C665.089 219.329 665.887 219.551 666.768 219.551C667.251 219.551 667.715 219.485 668.16 219.352C668.605 219.22 669.01 219.023 669.374 218.763C669.744 218.498 670.056 218.173 670.312 217.79C670.572 217.402 670.755 216.956 670.859 216.455H672.62C672.488 217.198 672.246 217.863 671.896 218.45C671.545 219.037 671.11 219.537 670.589 219.949C670.068 220.356 669.483 220.666 668.835 220.879C668.191 221.092 667.502 221.199 666.768 221.199C665.527 221.199 664.424 220.896 663.458 220.29C662.492 219.684 661.732 218.822 661.178 217.705C660.624 216.587 660.347 215.261 660.347 213.727C660.347 212.193 660.624 210.867 661.178 209.75C661.732 208.633 662.492 207.771 663.458 207.165C664.424 206.559 665.527 206.256 666.768 206.256C667.502 206.256 668.191 206.362 668.835 206.575C669.483 206.788 670.068 207.101 670.589 207.513C671.11 207.92 671.545 208.417 671.896 209.004C672.246 209.587 672.488 210.252 672.62 211ZM682.54 206.455V221H680.864V206.455H682.54ZM685.61 221V210.091H687.286V221H685.61ZM686.463 208.273C686.136 208.273 685.854 208.161 685.617 207.939C685.385 207.716 685.269 207.449 685.269 207.136C685.269 206.824 685.385 206.556 685.617 206.334C685.854 206.111 686.136 206 686.463 206C686.789 206 687.069 206.111 687.301 206.334C687.537 206.556 687.656 206.824 687.656 207.136C687.656 207.449 687.537 207.716 687.301 207.939C687.069 208.161 686.789 208.273 686.463 208.273ZM690.584 221V206.455H692.26V211.824H692.402C692.525 211.634 692.695 211.393 692.913 211.099C693.136 210.801 693.453 210.536 693.865 210.304C694.282 210.067 694.845 209.949 695.555 209.949C696.474 209.949 697.283 210.179 697.984 210.638C698.685 211.097 699.232 211.748 699.625 212.591C700.018 213.434 700.214 214.428 700.214 215.574C700.214 216.729 700.018 217.731 699.625 218.578C699.232 219.421 698.687 220.074 697.991 220.538C697.295 220.998 696.493 221.227 695.584 221.227C694.883 221.227 694.322 221.111 693.9 220.879C693.479 220.643 693.155 220.375 692.927 220.077C692.7 219.774 692.525 219.523 692.402 219.324H692.203V221H690.584ZM692.231 215.545C692.231 216.369 692.352 217.096 692.594 217.726C692.835 218.351 693.188 218.841 693.652 219.196C694.116 219.546 694.684 219.722 695.356 219.722C696.057 219.722 696.642 219.537 697.111 219.168C697.584 218.794 697.939 218.292 698.176 217.662C698.417 217.027 698.538 216.322 698.538 215.545C698.538 214.778 698.42 214.087 698.183 213.472C697.951 212.851 697.598 212.361 697.125 212.001C696.656 211.637 696.067 211.455 695.356 211.455C694.675 211.455 694.102 211.627 693.638 211.973C693.174 212.314 692.823 212.792 692.586 213.408C692.35 214.018 692.231 214.731 692.231 215.545ZM702.778 221V210.091H704.398V211.739H704.511C704.71 211.199 705.07 210.761 705.591 210.425C706.112 210.089 706.699 209.92 707.352 209.92C707.475 209.92 707.629 209.923 707.814 209.928C707.998 209.932 708.138 209.939 708.233 209.949V211.653C708.176 211.639 708.046 211.618 707.842 211.589C707.643 211.556 707.433 211.54 707.21 211.54C706.68 211.54 706.206 211.651 705.79 211.874C705.378 212.091 705.051 212.394 704.809 212.783C704.573 213.166 704.454 213.604 704.454 214.097V221H702.778ZM713.43 221.256C712.739 221.256 712.111 221.125 711.548 220.865C710.984 220.6 710.537 220.219 710.205 219.722C709.874 219.22 709.708 218.614 709.708 217.903C709.708 217.278 709.831 216.772 710.078 216.384C710.324 215.991 710.653 215.683 711.065 215.46C711.477 215.238 711.931 215.072 712.428 214.963C712.93 214.849 713.435 214.759 713.941 214.693C714.604 214.608 715.142 214.544 715.553 214.501C715.97 214.454 716.273 214.376 716.463 214.267C716.657 214.158 716.754 213.969 716.754 213.699V213.642C716.754 212.941 716.562 212.397 716.178 212.009C715.8 211.62 715.224 211.426 714.453 211.426C713.652 211.426 713.025 211.601 712.57 211.952C712.116 212.302 711.796 212.676 711.612 213.074L710.021 212.506C710.305 211.843 710.684 211.327 711.157 210.957C711.635 210.583 712.156 210.323 712.72 210.176C713.288 210.025 713.847 209.949 714.396 209.949C714.746 209.949 715.149 209.991 715.603 210.077C716.062 210.157 716.505 210.325 716.931 210.581C717.362 210.837 717.72 211.223 718.004 211.739C718.288 212.255 718.43 212.946 718.43 213.812V221H716.754V219.523H716.669C716.555 219.759 716.365 220.013 716.1 220.283C715.835 220.553 715.482 220.782 715.042 220.972C714.602 221.161 714.064 221.256 713.43 221.256ZM713.686 219.75C714.348 219.75 714.907 219.62 715.362 219.359C715.821 219.099 716.167 218.763 716.399 218.351C716.635 217.939 716.754 217.506 716.754 217.051V215.517C716.683 215.602 716.526 215.68 716.285 215.751C716.048 215.818 715.774 215.877 715.461 215.929C715.153 215.976 714.853 216.019 714.559 216.057C714.27 216.09 714.036 216.118 713.856 216.142C713.42 216.199 713.013 216.291 712.634 216.419C712.26 216.542 711.957 216.729 711.725 216.98C711.498 217.226 711.384 217.562 711.384 217.989C711.384 218.571 711.6 219.011 712.031 219.31C712.466 219.603 713.018 219.75 713.686 219.75ZM721.489 221V210.091H723.108V211.739H723.222C723.421 211.199 723.781 210.761 724.302 210.425C724.823 210.089 725.41 209.92 726.063 209.92C726.186 209.92 726.34 209.923 726.525 209.928C726.709 209.932 726.849 209.939 726.944 209.949V211.653C726.887 211.639 726.757 211.618 726.553 211.589C726.354 211.556 726.144 211.54 725.921 211.54C725.391 211.54 724.917 211.651 724.501 211.874C724.089 212.091 723.762 212.394 723.52 212.783C723.284 213.166 723.165 213.604 723.165 214.097V221H721.489ZM730.342 225.091C730.058 225.091 729.805 225.067 729.582 225.02C729.36 224.977 729.206 224.935 729.121 224.892L729.547 223.415C729.954 223.519 730.314 223.557 730.626 223.528C730.939 223.5 731.216 223.36 731.457 223.109C731.703 222.863 731.928 222.463 732.132 221.909L732.444 221.057L728.41 210.091H730.229L733.24 218.784H733.354L736.365 210.091H738.183L733.552 222.591C733.344 223.154 733.086 223.621 732.778 223.99C732.47 224.364 732.113 224.641 731.706 224.821C731.303 225.001 730.849 225.091 730.342 225.091Z" fill="#6B6B6B"/>
</g>
<defs>
<filter id="filter0_d_2_103" x="-24.4" y="-20.4" width="1000.8" height="339.8" filterUnits="userSpaceOnUse" color-interpolation-filters="sRGB">
<feFlood flood-opacity="0" result="BackgroundImageFix"/>
<feColorMatrix in="SourceAlpha" type="matrix" values="0 0 0 0 0 0 0 0 0 0 0 0 0 0 0 0 0 0 127 0" result="hardAlpha"/>
<feMorphology radius="5" operator="erode" in="SourceAlpha" result="effect1_dropShadow_2_103"/>
<feOffset dy="4"/>
<feGaussianBlur stdDeviation="24.7"/>
<feComposite in2="hardAlpha" operator="out"/>
<feColorMatrix type="matrix" values="0 0 0 0 0 0 0 0 0 0 0 0 0 0 0 0 0 0 0.52 0"/>
<feBlend mode="normal" in2="BackgroundImageFix" result="effect1_dropShadow_2_103"/>
<feBlend mode="normal" in="SourceGraphic" in2="effect1_dropShadow_2_103" result="shape"/>
</filter>
<linearGradient id="paint0_linear_2_103" x1="512.841" y1="123.94" x2="911.107" y2="314.635" gradientUnits="userSpaceOnUse">
<stop stop-color="#F0F0F0"/>
<stop offset="1" stop-color="#F0F0F0"/>
</linearGradient>
</defs>
</svg>
