<svg width="952" height="295" viewBox="0 0 952 295" fill="none" xmlns="http://www.w3.org/2000/svg">
<g filter="url(#filter0_d_2_104)">
<rect x="20" y="24" width="912" height="251" rx="50" fill="url(#paint0_linear_2_104)"/>
<path d="M296.5 108.167V89.3333H277.667M249.417 136.417H258.833M334.167 136.417H343.583M310.625 131.708V141.125M282.375 131.708V141.125M268.25 108.167H324.75C329.951 108.167 334.167 112.383 334.167 117.583V155.25C334.167 160.451 329.951 164.667 324.75 164.667H268.25C263.049 164.667 258.833 160.451 258.833 155.25V117.583C258.833 112.383 263.049 108.167 268.25 108.167Z" stroke="white" stroke-width="10" stroke-linecap="round" stroke-linejoin="round"/>
<path d="M403.591 92.1818L417.909 141.409H418.455L432.773 92.1818H454.182L431.136 162H405.227L382.182 92.1818H403.591ZM460.906 162V92.1818H511.224V107.455H479.861V119.455H508.634V134.727H479.861V146.727H511.088V162H460.906ZM520.625 162V92.1818H539.58V146.727H567.807V162H520.625ZM593.605 162H573.151L596.196 92.1818H622.105L645.151 162H624.696L609.423 111.409H608.878L593.605 162ZM589.787 134.455H628.241V148.636H589.787V134.455ZM651.875 162V92.1818H682.011C687.193 92.1818 691.727 93.125 695.614 95.0114C699.5 96.8977 702.523 99.6136 704.682 103.159C706.841 106.705 707.92 110.955 707.92 115.909C707.92 120.909 706.807 125.125 704.58 128.557C702.375 131.989 699.273 134.58 695.273 136.33C691.295 138.08 686.648 138.955 681.33 138.955H663.33V124.227H677.511C679.739 124.227 681.636 123.955 683.205 123.409C684.795 122.841 686.011 121.943 686.852 120.716C687.716 119.489 688.148 117.886 688.148 115.909C688.148 113.909 687.716 112.284 686.852 111.034C686.011 109.761 684.795 108.83 683.205 108.239C681.636 107.625 679.739 107.318 677.511 107.318H670.83V162H651.875ZM692.784 129.955L710.239 162H689.648L672.602 129.955H692.784Z" fill="white"/>
<path d="M215.497 225H213.65L218.991 210.455H220.809L226.15 225H224.303L219.957 212.756H219.843L215.497 225ZM216.178 219.318H223.622V220.881H216.178V219.318ZM235.916 216.534L234.41 216.96C234.315 216.709 234.176 216.465 233.991 216.229C233.811 215.987 233.565 215.788 233.252 215.632C232.94 215.476 232.54 215.398 232.052 215.398C231.384 215.398 230.828 215.552 230.383 215.859C229.943 216.162 229.722 216.548 229.722 217.017C229.722 217.434 229.874 217.763 230.177 218.004C230.48 218.246 230.954 218.447 231.597 218.608L233.217 219.006C234.192 219.242 234.919 219.605 235.397 220.092C235.875 220.575 236.115 221.198 236.115 221.96C236.115 222.585 235.935 223.144 235.575 223.636C235.22 224.129 234.722 224.517 234.083 224.801C233.444 225.085 232.701 225.227 231.853 225.227C230.74 225.227 229.82 224.986 229.09 224.503C228.361 224.02 227.9 223.314 227.705 222.386L229.296 221.989C229.448 222.576 229.734 223.016 230.156 223.31C230.582 223.603 231.138 223.75 231.825 223.75C232.606 223.75 233.226 223.584 233.686 223.253C234.15 222.917 234.382 222.514 234.382 222.045C234.382 221.667 234.249 221.349 233.984 221.094C233.719 220.833 233.311 220.639 232.762 220.511L230.944 220.085C229.945 219.848 229.211 219.482 228.742 218.984C228.278 218.482 228.046 217.855 228.046 217.102C228.046 216.487 228.219 215.942 228.565 215.469C228.915 214.995 229.391 214.624 229.992 214.354C230.598 214.084 231.285 213.949 232.052 213.949C233.132 213.949 233.979 214.186 234.595 214.659C235.215 215.133 235.655 215.758 235.916 216.534ZM239.717 229.091C239.433 229.091 239.18 229.067 238.957 229.02C238.735 228.977 238.581 228.935 238.496 228.892L238.922 227.415C239.329 227.519 239.689 227.557 240.001 227.528C240.314 227.5 240.591 227.36 240.832 227.109C241.078 226.863 241.303 226.463 241.507 225.909L241.819 225.057L237.785 214.091H239.604L242.615 222.784H242.729L245.74 214.091H247.558L242.927 226.591C242.719 227.154 242.461 227.621 242.153 227.99C241.845 228.364 241.488 228.641 241.081 228.821C240.678 229.001 240.224 229.091 239.717 229.091ZM251.447 218.438V225H249.77V214.091H251.39V215.795H251.532C251.787 215.241 252.176 214.796 252.697 214.46C253.217 214.119 253.89 213.949 254.714 213.949C255.452 213.949 256.099 214.1 256.653 214.403C257.206 214.702 257.637 215.156 257.945 215.767C258.253 216.373 258.407 217.14 258.407 218.068V225H256.731V218.182C256.731 217.325 256.508 216.657 256.063 216.179C255.618 215.696 255.007 215.455 254.231 215.455C253.696 215.455 253.217 215.571 252.796 215.803C252.379 216.035 252.05 216.373 251.809 216.818C251.567 217.263 251.447 217.803 251.447 218.438ZM265.901 225.227C264.879 225.227 263.998 224.986 263.259 224.503C262.521 224.02 261.953 223.355 261.555 222.507C261.157 221.66 260.958 220.691 260.958 219.602C260.958 218.494 261.162 217.517 261.569 216.669C261.981 215.817 262.554 215.152 263.288 214.673C264.026 214.19 264.888 213.949 265.873 213.949C266.64 213.949 267.331 214.091 267.947 214.375C268.562 214.659 269.067 215.057 269.46 215.568C269.853 216.08 270.097 216.676 270.191 217.358H268.515C268.387 216.861 268.103 216.42 267.663 216.037C267.227 215.649 266.64 215.455 265.901 215.455C265.248 215.455 264.675 215.625 264.183 215.966C263.695 216.302 263.314 216.778 263.039 217.393C262.769 218.004 262.634 218.722 262.634 219.545C262.634 220.388 262.767 221.122 263.032 221.747C263.302 222.372 263.681 222.857 264.169 223.203C264.661 223.549 265.239 223.722 265.901 223.722C266.337 223.722 266.732 223.646 267.088 223.494C267.443 223.343 267.743 223.125 267.99 222.841C268.236 222.557 268.411 222.216 268.515 221.818H270.191C270.097 222.462 269.862 223.042 269.488 223.558C269.119 224.07 268.629 224.477 268.018 224.78C267.412 225.078 266.706 225.227 265.901 225.227ZM274.318 218.438V225H272.642V210.455H274.318V215.795H274.46C274.715 215.232 275.099 214.785 275.61 214.453C276.126 214.117 276.813 213.949 277.67 213.949C278.413 213.949 279.064 214.098 279.623 214.396C280.182 214.69 280.615 215.142 280.923 215.753C281.235 216.359 281.392 217.131 281.392 218.068V225H279.715V218.182C279.715 217.315 279.49 216.645 279.041 216.172C278.596 215.694 277.978 215.455 277.187 215.455C276.638 215.455 276.145 215.571 275.71 215.803C275.279 216.035 274.938 216.373 274.687 216.818C274.441 217.263 274.318 217.803 274.318 218.438ZM284.458 225V214.091H286.077V215.739H286.191C286.39 215.199 286.75 214.761 287.27 214.425C287.791 214.089 288.378 213.92 289.032 213.92C289.155 213.92 289.309 213.923 289.493 213.928C289.678 213.932 289.818 213.939 289.912 213.949V215.653C289.856 215.639 289.725 215.618 289.522 215.589C289.323 215.556 289.112 215.54 288.89 215.54C288.359 215.54 287.886 215.651 287.469 215.874C287.057 216.091 286.731 216.394 286.489 216.783C286.252 217.166 286.134 217.604 286.134 218.097V225H284.458ZM295.999 225.227C295.014 225.227 294.15 224.993 293.407 224.524C292.668 224.055 292.09 223.4 291.674 222.557C291.262 221.714 291.056 220.729 291.056 219.602C291.056 218.466 291.262 217.474 291.674 216.626C292.09 215.779 292.668 215.121 293.407 214.652C294.15 214.183 295.014 213.949 295.999 213.949C296.984 213.949 297.846 214.183 298.584 214.652C299.328 215.121 299.905 215.779 300.317 216.626C300.734 217.474 300.942 218.466 300.942 219.602C300.942 220.729 300.734 221.714 300.317 222.557C299.905 223.4 299.328 224.055 298.584 224.524C297.846 224.993 296.984 225.227 295.999 225.227ZM295.999 223.722C296.747 223.722 297.363 223.53 297.846 223.146C298.329 222.763 298.686 222.259 298.918 221.634C299.15 221.009 299.266 220.331 299.266 219.602C299.266 218.873 299.15 218.194 298.918 217.564C298.686 216.934 298.329 216.425 297.846 216.037C297.363 215.649 296.747 215.455 295.999 215.455C295.251 215.455 294.635 215.649 294.153 216.037C293.67 216.425 293.312 216.934 293.08 217.564C292.848 218.194 292.732 218.873 292.732 219.602C292.732 220.331 292.848 221.009 293.08 221.634C293.312 222.259 293.67 222.763 294.153 223.146C294.635 223.53 295.251 223.722 295.999 223.722ZM305.177 218.438V225H303.501V214.091H305.12V215.795H305.262C305.518 215.241 305.906 214.796 306.427 214.46C306.948 214.119 307.62 213.949 308.444 213.949C309.183 213.949 309.829 214.1 310.383 214.403C310.937 214.702 311.368 215.156 311.676 215.767C311.983 216.373 312.137 217.14 312.137 218.068V225H310.461V218.182C310.461 217.325 310.239 216.657 309.794 216.179C309.348 215.696 308.738 215.455 307.961 215.455C307.426 215.455 306.948 215.571 306.526 215.803C306.11 216.035 305.781 216.373 305.539 216.818C305.298 217.263 305.177 217.803 305.177 218.438ZM319.632 225.227C318.647 225.227 317.783 224.993 317.04 224.524C316.301 224.055 315.723 223.4 315.307 222.557C314.895 221.714 314.689 220.729 314.689 219.602C314.689 218.466 314.895 217.474 315.307 216.626C315.723 215.779 316.301 215.121 317.04 214.652C317.783 214.183 318.647 213.949 319.632 213.949C320.617 213.949 321.479 214.183 322.217 214.652C322.961 215.121 323.538 215.779 323.95 216.626C324.367 217.474 324.575 218.466 324.575 219.602C324.575 220.729 324.367 221.714 323.95 222.557C323.538 223.4 322.961 224.055 322.217 224.524C321.479 224.993 320.617 225.227 319.632 225.227ZM319.632 223.722C320.38 223.722 320.996 223.53 321.479 223.146C321.961 222.763 322.319 222.259 322.551 221.634C322.783 221.009 322.899 220.331 322.899 219.602C322.899 218.873 322.783 218.194 322.551 217.564C322.319 216.934 321.961 216.425 321.479 216.037C320.996 215.649 320.38 215.455 319.632 215.455C318.884 215.455 318.268 215.649 317.785 216.037C317.302 216.425 316.945 216.934 316.713 217.564C316.481 218.194 316.365 218.873 316.365 219.602C316.365 220.331 316.481 221.009 316.713 221.634C316.945 222.259 317.302 222.763 317.785 223.146C318.268 223.53 318.884 223.722 319.632 223.722ZM334.009 220.54V214.091H335.685V225H334.009V223.153H333.895C333.639 223.707 333.242 224.179 332.702 224.567C332.162 224.95 331.48 225.142 330.656 225.142C329.975 225.142 329.369 224.993 328.838 224.695C328.308 224.392 327.891 223.937 327.588 223.331C327.285 222.72 327.134 221.951 327.134 221.023V214.091H328.81V220.909C328.81 221.705 329.032 222.339 329.477 222.812C329.927 223.286 330.5 223.523 331.196 223.523C331.613 223.523 332.037 223.416 332.468 223.203C332.903 222.99 333.268 222.663 333.561 222.223C333.86 221.783 334.009 221.222 334.009 220.54ZM346.482 216.534L344.976 216.96C344.882 216.709 344.742 216.465 344.557 216.229C344.377 215.987 344.131 215.788 343.819 215.632C343.506 215.476 343.106 215.398 342.618 215.398C341.951 215.398 341.394 215.552 340.949 215.859C340.509 216.162 340.289 216.548 340.289 217.017C340.289 217.434 340.44 217.763 340.743 218.004C341.046 218.246 341.52 218.447 342.164 218.608L343.783 219.006C344.759 219.242 345.485 219.605 345.964 220.092C346.442 220.575 346.681 221.198 346.681 221.96C346.681 222.585 346.501 223.144 346.141 223.636C345.786 224.129 345.289 224.517 344.65 224.801C344.01 225.085 343.267 225.227 342.42 225.227C341.307 225.227 340.386 224.986 339.657 224.503C338.928 224.02 338.466 223.314 338.272 222.386L339.863 221.989C340.014 222.576 340.301 223.016 340.722 223.31C341.148 223.603 341.705 223.75 342.391 223.75C343.172 223.75 343.793 223.584 344.252 223.253C344.716 222.917 344.948 222.514 344.948 222.045C344.948 221.667 344.815 221.349 344.55 221.094C344.285 220.833 343.878 220.639 343.329 220.511L341.51 220.085C340.511 219.848 339.778 219.482 339.309 218.984C338.845 218.482 338.613 217.855 338.613 217.102C338.613 216.487 338.786 215.942 339.131 215.469C339.482 214.995 339.957 214.624 340.559 214.354C341.165 214.084 341.851 213.949 342.618 213.949C343.698 213.949 344.546 214.186 345.161 214.659C345.781 215.133 346.222 215.758 346.482 216.534ZM351.704 223.011L351.59 223.778C351.51 224.318 351.387 224.896 351.221 225.511C351.06 226.127 350.892 226.707 350.717 227.251C350.542 227.796 350.397 228.229 350.284 228.551H349.005C349.067 228.248 349.147 227.848 349.247 227.351C349.346 226.854 349.445 226.297 349.545 225.682C349.649 225.071 349.734 224.446 349.801 223.807L349.886 223.011H351.704ZM362.111 218.438V225H360.434V210.455H362.111V215.795H362.253C362.508 215.232 362.892 214.785 363.403 214.453C363.919 214.117 364.606 213.949 365.463 213.949C366.206 213.949 366.857 214.098 367.416 214.396C367.975 214.69 368.408 215.142 368.716 215.753C369.028 216.359 369.184 217.131 369.184 218.068V225H367.508V218.182C367.508 217.315 367.283 216.645 366.834 216.172C366.389 215.694 365.771 215.455 364.98 215.455C364.431 215.455 363.938 215.571 363.503 215.803C363.072 216.035 362.731 216.373 362.48 216.818C362.234 217.263 362.111 217.803 362.111 218.438ZM372.251 225V214.091H373.927V225H372.251ZM373.103 212.273C372.776 212.273 372.495 212.161 372.258 211.939C372.026 211.716 371.91 211.449 371.91 211.136C371.91 210.824 372.026 210.556 372.258 210.334C372.495 210.111 372.776 210 373.103 210C373.43 210 373.709 210.111 373.941 210.334C374.178 210.556 374.296 210.824 374.296 211.136C374.296 211.449 374.178 211.716 373.941 211.939C373.709 212.161 373.43 212.273 373.103 212.273ZM381.4 229.318C380.591 229.318 379.895 229.214 379.312 229.006C378.73 228.802 378.245 228.532 377.856 228.196C377.473 227.865 377.167 227.509 376.94 227.131L378.275 226.193C378.427 226.392 378.619 226.619 378.851 226.875C379.083 227.135 379.4 227.36 379.802 227.55C380.21 227.744 380.742 227.841 381.4 227.841C382.281 227.841 383.008 227.628 383.581 227.202C384.154 226.776 384.44 226.108 384.44 225.199V222.983H384.298C384.175 223.182 384 223.428 383.773 223.722C383.55 224.01 383.228 224.268 382.807 224.496C382.39 224.718 381.827 224.83 381.116 224.83C380.236 224.83 379.445 224.621 378.744 224.205C378.048 223.788 377.497 223.182 377.089 222.386C376.687 221.591 376.486 220.625 376.486 219.489C376.486 218.371 376.682 217.398 377.075 216.57C377.468 215.736 378.015 215.092 378.716 214.638C379.416 214.179 380.226 213.949 381.145 213.949C381.855 213.949 382.418 214.067 382.835 214.304C383.256 214.536 383.578 214.801 383.801 215.099C384.028 215.393 384.203 215.634 384.327 215.824H384.497V214.091H386.116V225.312C386.116 226.25 385.903 227.012 385.477 227.599C385.056 228.191 384.488 228.625 383.773 228.899C383.062 229.179 382.272 229.318 381.4 229.318ZM381.344 223.324C382.016 223.324 382.584 223.17 383.048 222.862C383.512 222.554 383.865 222.112 384.106 221.534C384.348 220.956 384.469 220.265 384.469 219.46C384.469 218.674 384.35 217.981 384.113 217.379C383.877 216.778 383.526 216.307 383.062 215.966C382.598 215.625 382.025 215.455 381.344 215.455C380.633 215.455 380.041 215.634 379.568 215.994C379.099 216.354 378.747 216.837 378.51 217.443C378.278 218.049 378.162 218.722 378.162 219.46C378.162 220.218 378.28 220.888 378.517 221.47C378.758 222.048 379.113 222.502 379.582 222.834C380.056 223.161 380.643 223.324 381.344 223.324ZM390.861 218.438V225H389.184V210.455H390.861V215.795H391.003C391.258 215.232 391.642 214.785 392.153 214.453C392.669 214.117 393.356 213.949 394.213 213.949C394.956 213.949 395.607 214.098 396.166 214.396C396.725 214.69 397.158 215.142 397.466 215.753C397.778 216.359 397.934 217.131 397.934 218.068V225H396.258V218.182C396.258 217.315 396.033 216.645 395.584 216.172C395.139 215.694 394.521 215.455 393.73 215.455C393.181 215.455 392.688 215.571 392.253 215.803C391.822 216.035 391.481 216.373 391.23 216.818C390.984 217.263 390.861 217.803 390.861 218.438ZM407.251 217.983V219.545H400.887V217.983H407.251ZM410.2 229.091V214.091H411.819V215.824H412.018C412.141 215.634 412.312 215.393 412.53 215.099C412.752 214.801 413.069 214.536 413.481 214.304C413.898 214.067 414.461 213.949 415.172 213.949C416.09 213.949 416.9 214.179 417.601 214.638C418.301 215.097 418.848 215.748 419.241 216.591C419.634 217.434 419.831 218.428 419.831 219.574C419.831 220.729 419.634 221.731 419.241 222.578C418.848 223.421 418.304 224.074 417.608 224.538C416.912 224.998 416.109 225.227 415.2 225.227C414.499 225.227 413.938 225.111 413.517 224.879C413.095 224.643 412.771 224.375 412.544 224.077C412.317 223.774 412.141 223.523 412.018 223.324H411.876V229.091H410.2ZM411.848 219.545C411.848 220.369 411.969 221.096 412.21 221.726C412.452 222.351 412.804 222.841 413.268 223.196C413.732 223.546 414.3 223.722 414.973 223.722C415.674 223.722 416.258 223.537 416.727 223.168C417.201 222.794 417.556 222.292 417.792 221.662C418.034 221.027 418.155 220.322 418.155 219.545C418.155 218.778 418.036 218.087 417.8 217.472C417.568 216.851 417.215 216.361 416.741 216.001C416.273 215.637 415.683 215.455 414.973 215.455C414.291 215.455 413.718 215.627 413.254 215.973C412.79 216.314 412.44 216.792 412.203 217.408C411.966 218.018 411.848 218.731 411.848 219.545ZM426.961 225.227C425.91 225.227 425.004 224.995 424.241 224.531C423.484 224.062 422.899 223.409 422.487 222.571C422.08 221.728 421.876 220.748 421.876 219.631C421.876 218.513 422.08 217.528 422.487 216.676C422.899 215.819 423.472 215.152 424.206 214.673C424.944 214.19 425.806 213.949 426.791 213.949C427.359 213.949 427.92 214.044 428.474 214.233C429.028 214.422 429.532 214.73 429.987 215.156C430.442 215.578 430.804 216.136 431.074 216.832C431.344 217.528 431.479 218.385 431.479 219.403V220.114H423.069V218.665H429.774C429.774 218.049 429.651 217.5 429.405 217.017C429.163 216.534 428.818 216.153 428.368 215.874C427.923 215.594 427.397 215.455 426.791 215.455C426.123 215.455 425.546 215.62 425.058 215.952C424.575 216.278 424.203 216.705 423.943 217.23C423.683 217.756 423.552 218.319 423.552 218.92V219.886C423.552 220.71 423.694 221.409 423.979 221.982C424.267 222.55 424.667 222.983 425.179 223.281C425.69 223.575 426.284 223.722 426.961 223.722C427.402 223.722 427.8 223.66 428.155 223.537C428.515 223.409 428.825 223.22 429.085 222.969C429.345 222.713 429.547 222.396 429.689 222.017L431.308 222.472C431.138 223.021 430.851 223.504 430.449 223.92C430.046 224.332 429.549 224.654 428.957 224.886C428.365 225.114 427.7 225.227 426.961 225.227ZM434.028 225V214.091H435.648V215.739H435.761C435.96 215.199 436.32 214.761 436.841 214.425C437.362 214.089 437.949 213.92 438.602 213.92C438.725 213.92 438.879 213.923 439.064 213.928C439.248 213.932 439.388 213.939 439.483 213.949V215.653C439.426 215.639 439.296 215.618 439.092 215.589C438.893 215.556 438.683 215.54 438.46 215.54C437.93 215.54 437.456 215.651 437.04 215.874C436.628 216.091 436.301 216.394 436.059 216.783C435.823 217.166 435.704 217.604 435.704 218.097V225H434.028ZM447.011 214.091V215.511H441.131V214.091H447.011ZM442.892 225V212.585C442.892 211.96 443.039 211.439 443.332 211.023C443.626 210.606 444.007 210.294 444.476 210.085C444.944 209.877 445.439 209.773 445.96 209.773C446.372 209.773 446.708 209.806 446.969 209.872C447.229 209.938 447.423 210 447.551 210.057L447.068 211.506C446.983 211.477 446.864 211.442 446.713 211.399C446.566 211.357 446.372 211.335 446.131 211.335C445.577 211.335 445.176 211.475 444.93 211.754C444.689 212.034 444.568 212.443 444.568 212.983V225H442.892ZM453.343 225.227C452.358 225.227 451.494 224.993 450.751 224.524C450.012 224.055 449.434 223.4 449.018 222.557C448.606 221.714 448.4 220.729 448.4 219.602C448.4 218.466 448.606 217.474 449.018 216.626C449.434 215.779 450.012 215.121 450.751 214.652C451.494 214.183 452.358 213.949 453.343 213.949C454.328 213.949 455.189 214.183 455.928 214.652C456.671 215.121 457.249 215.779 457.661 216.626C458.078 217.474 458.286 218.466 458.286 219.602C458.286 220.729 458.078 221.714 457.661 222.557C457.249 223.4 456.671 224.055 455.928 224.524C455.189 224.993 454.328 225.227 453.343 225.227ZM453.343 223.722C454.091 223.722 454.706 223.53 455.189 223.146C455.672 222.763 456.03 222.259 456.262 221.634C456.494 221.009 456.61 220.331 456.61 219.602C456.61 218.873 456.494 218.194 456.262 217.564C456.03 216.934 455.672 216.425 455.189 216.037C454.706 215.649 454.091 215.455 453.343 215.455C452.595 215.455 451.979 215.649 451.496 216.037C451.013 216.425 450.656 216.934 450.424 217.564C450.192 218.194 450.076 218.873 450.076 219.602C450.076 220.331 450.192 221.009 450.424 221.634C450.656 222.259 451.013 222.763 451.496 223.146C451.979 223.53 452.595 223.722 453.343 223.722ZM460.845 225V214.091H462.464V215.739H462.578C462.776 215.199 463.136 214.761 463.657 214.425C464.178 214.089 464.765 213.92 465.419 213.92C465.542 213.92 465.695 213.923 465.88 213.928C466.065 213.932 466.204 213.939 466.299 213.949V215.653C466.242 215.639 466.112 215.618 465.909 215.589C465.71 215.556 465.499 215.54 465.276 215.54C464.746 215.54 464.273 215.651 463.856 215.874C463.444 216.091 463.117 216.394 462.876 216.783C462.639 217.166 462.521 217.604 462.521 218.097V225H460.845ZM468.286 225V214.091H469.905V215.795H470.047C470.275 215.213 470.642 214.761 471.148 214.439C471.655 214.112 472.263 213.949 472.974 213.949C473.693 213.949 474.292 214.112 474.77 214.439C475.253 214.761 475.63 215.213 475.9 215.795H476.013C476.293 215.232 476.712 214.785 477.27 214.453C477.829 214.117 478.499 213.949 479.28 213.949C480.256 213.949 481.054 214.254 481.674 214.865C482.294 215.471 482.604 216.416 482.604 217.699V225H480.928V217.699C480.928 216.894 480.708 216.319 480.268 215.973C479.827 215.627 479.309 215.455 478.712 215.455C477.945 215.455 477.351 215.687 476.93 216.151C476.508 216.61 476.297 217.192 476.297 217.898V225H474.593V217.528C474.593 216.908 474.392 216.409 473.989 216.03C473.587 215.646 473.068 215.455 472.434 215.455C471.998 215.455 471.591 215.571 471.212 215.803C470.838 216.035 470.535 216.357 470.303 216.768C470.076 217.176 469.962 217.647 469.962 218.182V225H468.286ZM488.879 225.256C488.188 225.256 487.56 225.125 486.997 224.865C486.434 224.6 485.986 224.219 485.655 223.722C485.323 223.22 485.157 222.614 485.157 221.903C485.157 221.278 485.281 220.772 485.527 220.384C485.773 219.991 486.102 219.683 486.514 219.46C486.926 219.238 487.381 219.072 487.878 218.963C488.38 218.849 488.884 218.759 489.39 218.693C490.053 218.608 490.591 218.544 491.003 218.501C491.419 218.454 491.722 218.376 491.912 218.267C492.106 218.158 492.203 217.969 492.203 217.699V217.642C492.203 216.941 492.011 216.397 491.628 216.009C491.249 215.62 490.674 215.426 489.902 215.426C489.102 215.426 488.474 215.601 488.02 215.952C487.565 216.302 487.246 216.676 487.061 217.074L485.47 216.506C485.754 215.843 486.133 215.327 486.606 214.957C487.085 214.583 487.605 214.323 488.169 214.176C488.737 214.025 489.296 213.949 489.845 213.949C490.195 213.949 490.598 213.991 491.052 214.077C491.512 214.157 491.954 214.325 492.381 214.581C492.811 214.837 493.169 215.223 493.453 215.739C493.737 216.255 493.879 216.946 493.879 217.812V225H492.203V223.523H492.118C492.004 223.759 491.815 224.013 491.55 224.283C491.284 224.553 490.932 224.782 490.491 224.972C490.051 225.161 489.514 225.256 488.879 225.256ZM489.135 223.75C489.798 223.75 490.356 223.62 490.811 223.359C491.27 223.099 491.616 222.763 491.848 222.351C492.085 221.939 492.203 221.506 492.203 221.051V219.517C492.132 219.602 491.976 219.68 491.734 219.751C491.497 219.818 491.223 219.877 490.91 219.929C490.603 219.976 490.302 220.019 490.008 220.057C489.72 220.09 489.485 220.118 489.305 220.142C488.87 220.199 488.462 220.291 488.084 220.419C487.71 220.542 487.407 220.729 487.175 220.98C486.947 221.226 486.834 221.562 486.834 221.989C486.834 222.571 487.049 223.011 487.48 223.31C487.916 223.603 488.467 223.75 489.135 223.75ZM498.615 218.438V225H496.938V214.091H498.558V215.795H498.7C498.955 215.241 499.344 214.796 499.865 214.46C500.385 214.119 501.058 213.949 501.882 213.949C502.62 213.949 503.267 214.1 503.82 214.403C504.374 214.702 504.805 215.156 505.113 215.767C505.421 216.373 505.575 217.14 505.575 218.068V225H503.899V218.182C503.899 217.325 503.676 216.657 503.231 216.179C502.786 215.696 502.175 215.455 501.399 215.455C500.864 215.455 500.385 215.571 499.964 215.803C499.547 216.035 499.218 216.373 498.977 216.818C498.735 217.263 498.615 217.803 498.615 218.438ZM513.069 225.227C512.047 225.227 511.166 224.986 510.427 224.503C509.689 224.02 509.121 223.355 508.723 222.507C508.325 221.66 508.126 220.691 508.126 219.602C508.126 218.494 508.33 217.517 508.737 216.669C509.149 215.817 509.722 215.152 510.456 214.673C511.194 214.19 512.056 213.949 513.041 213.949C513.808 213.949 514.499 214.091 515.115 214.375C515.73 214.659 516.235 215.057 516.628 215.568C517.021 216.08 517.265 216.676 517.359 217.358H515.683C515.555 216.861 515.271 216.42 514.831 216.037C514.395 215.649 513.808 215.455 513.069 215.455C512.416 215.455 511.843 215.625 511.351 215.966C510.863 216.302 510.482 216.778 510.207 217.393C509.937 218.004 509.802 218.722 509.802 219.545C509.802 220.388 509.935 221.122 510.2 221.747C510.47 222.372 510.849 222.857 511.336 223.203C511.829 223.549 512.407 223.722 513.069 223.722C513.505 223.722 513.9 223.646 514.256 223.494C514.611 223.343 514.911 223.125 515.157 222.841C515.404 222.557 515.579 222.216 515.683 221.818H517.359C517.265 222.462 517.03 223.042 516.656 223.558C516.287 224.07 515.797 224.477 515.186 224.78C514.58 225.078 513.874 225.227 513.069 225.227ZM524.383 225.227C523.332 225.227 522.425 224.995 521.663 224.531C520.906 224.062 520.321 223.409 519.909 222.571C519.502 221.728 519.298 220.748 519.298 219.631C519.298 218.513 519.502 217.528 519.909 216.676C520.321 215.819 520.894 215.152 521.628 214.673C522.366 214.19 523.228 213.949 524.213 213.949C524.781 213.949 525.342 214.044 525.896 214.233C526.45 214.422 526.954 214.73 527.409 215.156C527.863 215.578 528.226 216.136 528.496 216.832C528.765 217.528 528.9 218.385 528.9 219.403V220.114H520.491V218.665H527.196C527.196 218.049 527.073 217.5 526.827 217.017C526.585 216.534 526.239 216.153 525.79 215.874C525.345 215.594 524.819 215.455 524.213 215.455C523.545 215.455 522.968 215.62 522.48 215.952C521.997 216.278 521.625 216.705 521.365 217.23C521.104 217.756 520.974 218.319 520.974 218.92V219.886C520.974 220.71 521.116 221.409 521.4 221.982C521.689 222.55 522.089 222.983 522.601 223.281C523.112 223.575 523.706 223.722 524.383 223.722C524.824 223.722 525.221 223.66 525.577 223.537C525.936 223.409 526.247 223.22 526.507 222.969C526.767 222.713 526.969 222.396 527.111 222.017L528.73 222.472C528.559 223.021 528.273 223.504 527.871 223.92C527.468 224.332 526.971 224.654 526.379 224.886C525.787 225.114 525.122 225.227 524.383 225.227ZM537.302 210.455H539.405L544.348 222.528H544.518L549.461 210.455H551.564V225H549.916V213.949H549.774L545.229 225H543.638L539.092 213.949H538.95V225H537.302V210.455ZM554.868 225V214.091H556.544V225H554.868ZM555.72 212.273C555.394 212.273 555.112 212.161 554.875 211.939C554.643 211.716 554.527 211.449 554.527 211.136C554.527 210.824 554.643 210.556 554.875 210.334C555.112 210.111 555.394 210 555.72 210C556.047 210 556.326 210.111 556.558 210.334C556.795 210.556 556.914 210.824 556.914 211.136C556.914 211.449 556.795 211.716 556.558 211.939C556.326 212.161 556.047 212.273 555.72 212.273ZM561.29 218.438V225H559.614V214.091H561.233V215.795H561.376C561.631 215.241 562.019 214.796 562.54 214.46C563.061 214.119 563.733 213.949 564.557 213.949C565.296 213.949 565.942 214.1 566.496 214.403C567.05 214.702 567.481 215.156 567.789 215.767C568.097 216.373 568.251 217.14 568.251 218.068V225H566.574V218.182C566.574 217.325 566.352 216.657 565.907 216.179C565.462 215.696 564.851 215.455 564.074 215.455C563.539 215.455 563.061 215.571 562.64 215.803C562.223 216.035 561.894 216.373 561.653 216.818C561.411 217.263 561.29 217.803 561.29 218.438ZM575.887 225.227C574.836 225.227 573.929 224.995 573.167 224.531C572.41 224.062 571.825 223.409 571.413 222.571C571.006 221.728 570.802 220.748 570.802 219.631C570.802 218.513 571.006 217.528 571.413 216.676C571.825 215.819 572.398 215.152 573.132 214.673C573.87 214.19 574.732 213.949 575.717 213.949C576.285 213.949 576.846 214.044 577.4 214.233C577.954 214.422 578.458 214.73 578.913 215.156C579.367 215.578 579.73 216.136 579.999 216.832C580.269 217.528 580.404 218.385 580.404 219.403V220.114H571.995V218.665H578.7C578.7 218.049 578.577 217.5 578.33 217.017C578.089 216.534 577.743 216.153 577.294 215.874C576.848 215.594 576.323 215.455 575.717 215.455C575.049 215.455 574.472 215.62 573.984 215.952C573.501 216.278 573.129 216.705 572.869 217.23C572.608 217.756 572.478 218.319 572.478 218.92V219.886C572.478 220.71 572.62 221.409 572.904 221.982C573.193 222.55 573.593 222.983 574.105 223.281C574.616 223.575 575.21 223.722 575.887 223.722C576.328 223.722 576.725 223.66 577.08 223.537C577.44 223.409 577.75 223.22 578.011 222.969C578.271 222.713 578.472 222.396 578.615 222.017L580.234 222.472C580.063 223.021 579.777 223.504 579.374 223.92C578.972 224.332 578.475 224.654 577.883 224.886C577.291 225.114 576.626 225.227 575.887 225.227ZM587.386 225.227C586.363 225.227 585.482 224.986 584.744 224.503C584.005 224.02 583.437 223.355 583.039 222.507C582.642 221.66 582.443 220.691 582.443 219.602C582.443 218.494 582.646 217.517 583.053 216.669C583.465 215.817 584.038 215.152 584.772 214.673C585.511 214.19 586.373 213.949 587.357 213.949C588.124 213.949 588.816 214.091 589.431 214.375C590.047 214.659 590.551 215.057 590.944 215.568C591.337 216.08 591.581 216.676 591.676 217.358H589.999C589.872 216.861 589.588 216.42 589.147 216.037C588.712 215.649 588.124 215.455 587.386 215.455C586.732 215.455 586.16 215.625 585.667 215.966C585.179 216.302 584.798 216.778 584.524 217.393C584.254 218.004 584.119 218.722 584.119 219.545C584.119 220.388 584.251 221.122 584.517 221.747C584.786 222.372 585.165 222.857 585.653 223.203C586.145 223.549 586.723 223.722 587.386 223.722C587.821 223.722 588.217 223.646 588.572 223.494C588.927 223.343 589.228 223.125 589.474 222.841C589.72 222.557 589.895 222.216 589.999 221.818H591.676C591.581 222.462 591.347 223.042 590.972 223.558C590.603 224.07 590.113 224.477 589.502 224.78C588.896 225.078 588.191 225.227 587.386 225.227ZM594.126 225V214.091H595.745V215.739H595.859C596.058 215.199 596.418 214.761 596.938 214.425C597.459 214.089 598.046 213.92 598.7 213.92C598.823 213.92 598.977 213.923 599.161 213.928C599.346 213.932 599.486 213.939 599.58 213.949V215.653C599.524 215.639 599.393 215.618 599.19 215.589C598.991 215.556 598.78 215.54 598.558 215.54C598.027 215.54 597.554 215.651 597.137 215.874C596.725 216.091 596.399 216.394 596.157 216.783C595.92 217.166 595.802 217.604 595.802 218.097V225H594.126ZM604.778 225.256C604.086 225.256 603.459 225.125 602.895 224.865C602.332 224.6 601.885 224.219 601.553 223.722C601.222 223.22 601.056 222.614 601.056 221.903C601.056 221.278 601.179 220.772 601.425 220.384C601.671 219.991 602.001 219.683 602.412 219.46C602.824 219.238 603.279 219.072 603.776 218.963C604.278 218.849 604.782 218.759 605.289 218.693C605.952 218.608 606.489 218.544 606.901 218.501C607.318 218.454 607.621 218.376 607.81 218.267C608.004 218.158 608.101 217.969 608.101 217.699V217.642C608.101 216.941 607.91 216.397 607.526 216.009C607.147 215.62 606.572 215.426 605.8 215.426C605 215.426 604.373 215.601 603.918 215.952C603.464 216.302 603.144 216.676 602.959 217.074L601.368 216.506C601.653 215.843 602.031 215.327 602.505 214.957C602.983 214.583 603.504 214.323 604.067 214.176C604.635 214.025 605.194 213.949 605.743 213.949C606.094 213.949 606.496 213.991 606.951 214.077C607.41 214.157 607.853 214.325 608.279 214.581C608.71 214.837 609.067 215.223 609.351 215.739C609.635 216.255 609.778 216.946 609.778 217.812V225H608.101V223.523H608.016C607.903 223.759 607.713 224.013 607.448 224.283C607.183 224.553 606.83 224.782 606.39 224.972C605.949 225.161 605.412 225.256 604.778 225.256ZM605.033 223.75C605.696 223.75 606.255 223.62 606.709 223.359C607.169 223.099 607.514 222.763 607.746 222.351C607.983 221.939 608.101 221.506 608.101 221.051V219.517C608.03 219.602 607.874 219.68 607.633 219.751C607.396 219.818 607.121 219.877 606.809 219.929C606.501 219.976 606.2 220.019 605.907 220.057C605.618 220.09 605.384 220.118 605.204 220.142C604.768 220.199 604.361 220.291 603.982 220.419C603.608 220.542 603.305 220.729 603.073 220.98C602.846 221.226 602.732 221.562 602.732 221.989C602.732 222.571 602.948 223.011 603.378 223.31C603.814 223.603 604.366 223.75 605.033 223.75ZM617.695 214.091V215.511H611.814V214.091H617.695ZM613.575 225V212.585C613.575 211.96 613.722 211.439 614.016 211.023C614.309 210.606 614.691 210.294 615.159 210.085C615.628 209.877 616.123 209.773 616.644 209.773C617.056 209.773 617.392 209.806 617.652 209.872C617.913 209.938 618.107 210 618.235 210.057L617.752 211.506C617.666 211.477 617.548 211.442 617.396 211.399C617.25 211.357 617.056 211.335 616.814 211.335C616.26 211.335 615.86 211.475 615.614 211.754C615.372 212.034 615.252 212.443 615.252 212.983V225H613.575ZM624.788 214.091V215.511H619.135V214.091H624.788ZM620.782 211.477H622.459V221.875C622.459 222.348 622.527 222.704 622.665 222.94C622.807 223.172 622.987 223.329 623.204 223.409C623.427 223.485 623.661 223.523 623.907 223.523C624.092 223.523 624.244 223.513 624.362 223.494C624.48 223.471 624.575 223.452 624.646 223.438L624.987 224.943C624.873 224.986 624.715 225.028 624.511 225.071C624.308 225.118 624.05 225.142 623.737 225.142C623.264 225.142 622.8 225.04 622.345 224.837C621.895 224.633 621.521 224.323 621.223 223.906C620.929 223.49 620.782 222.964 620.782 222.33V211.477ZM644.696 210.455V225H642.991L635.065 213.58H634.923V225H633.162V210.455H634.866L642.821 221.903H642.963V210.455H644.696ZM648.22 225V210.455H653.135C654.276 210.455 655.209 210.661 655.933 211.072C656.663 211.48 657.202 212.031 657.553 212.727C657.903 213.423 658.078 214.2 658.078 215.057C658.078 215.914 657.903 216.693 657.553 217.393C657.207 218.094 656.672 218.653 655.948 219.07C655.223 219.482 654.295 219.688 653.164 219.688H649.641V218.125H653.107C653.888 218.125 654.515 217.99 654.989 217.72C655.462 217.45 655.806 217.086 656.019 216.626C656.236 216.162 656.345 215.639 656.345 215.057C656.345 214.474 656.236 213.954 656.019 213.494C655.806 213.035 655.46 212.675 654.982 212.415C654.503 212.15 653.869 212.017 653.078 212.017H649.982V225H648.22ZM672.62 215H670.859C670.755 214.493 670.572 214.048 670.312 213.665C670.056 213.281 669.744 212.959 669.374 212.699C669.01 212.434 668.605 212.235 668.16 212.102C667.715 211.97 667.251 211.903 666.768 211.903C665.887 211.903 665.089 212.126 664.374 212.571C663.664 213.016 663.098 213.672 662.677 214.538C662.26 215.405 662.052 216.468 662.052 217.727C662.052 218.987 662.26 220.05 662.677 220.916C663.098 221.783 663.664 222.438 664.374 222.884C665.089 223.329 665.887 223.551 666.768 223.551C667.251 223.551 667.715 223.485 668.16 223.352C668.605 223.22 669.01 223.023 669.374 222.763C669.744 222.498 670.056 222.173 670.312 221.79C670.572 221.402 670.755 220.956 670.859 220.455H672.62C672.488 221.198 672.246 221.863 671.896 222.45C671.545 223.037 671.11 223.537 670.589 223.949C670.068 224.356 669.483 224.666 668.835 224.879C668.191 225.092 667.502 225.199 666.768 225.199C665.527 225.199 664.424 224.896 663.458 224.29C662.492 223.684 661.732 222.822 661.178 221.705C660.624 220.587 660.347 219.261 660.347 217.727C660.347 216.193 660.624 214.867 661.178 213.75C661.732 212.633 662.492 211.771 663.458 211.165C664.424 210.559 665.527 210.256 666.768 210.256C667.502 210.256 668.191 210.362 668.835 210.575C669.483 210.788 670.068 211.101 670.589 211.513C671.11 211.92 671.545 212.417 671.896 213.004C672.246 213.587 672.488 214.252 672.62 215ZM682.54 210.455V225H680.864V210.455H682.54ZM685.61 225V214.091H687.286V225H685.61ZM686.463 212.273C686.136 212.273 685.854 212.161 685.617 211.939C685.385 211.716 685.269 211.449 685.269 211.136C685.269 210.824 685.385 210.556 685.617 210.334C685.854 210.111 686.136 210 686.463 210C686.789 210 687.069 210.111 687.301 210.334C687.537 210.556 687.656 210.824 687.656 211.136C687.656 211.449 687.537 211.716 687.301 211.939C687.069 212.161 686.789 212.273 686.463 212.273ZM690.584 225V210.455H692.26V215.824H692.402C692.525 215.634 692.695 215.393 692.913 215.099C693.136 214.801 693.453 214.536 693.865 214.304C694.282 214.067 694.845 213.949 695.555 213.949C696.474 213.949 697.283 214.179 697.984 214.638C698.685 215.097 699.232 215.748 699.625 216.591C700.018 217.434 700.214 218.428 700.214 219.574C700.214 220.729 700.018 221.731 699.625 222.578C699.232 223.421 698.687 224.074 697.991 224.538C697.295 224.998 696.493 225.227 695.584 225.227C694.883 225.227 694.322 225.111 693.9 224.879C693.479 224.643 693.155 224.375 692.927 224.077C692.7 223.774 692.525 223.523 692.402 223.324H692.203V225H690.584ZM692.231 219.545C692.231 220.369 692.352 221.096 692.594 221.726C692.835 222.351 693.188 222.841 693.652 223.196C694.116 223.546 694.684 223.722 695.356 223.722C696.057 223.722 696.642 223.537 697.111 223.168C697.584 222.794 697.939 222.292 698.176 221.662C698.417 221.027 698.538 220.322 698.538 219.545C698.538 218.778 698.42 218.087 698.183 217.472C697.951 216.851 697.598 216.361 697.125 216.001C696.656 215.637 696.067 215.455 695.356 215.455C694.675 215.455 694.102 215.627 693.638 215.973C693.174 216.314 692.823 216.792 692.586 217.408C692.35 218.018 692.231 218.731 692.231 219.545ZM702.778 225V214.091H704.398V215.739H704.511C704.71 215.199 705.07 214.761 705.591 214.425C706.112 214.089 706.699 213.92 707.352 213.92C707.475 213.92 707.629 213.923 707.814 213.928C707.998 213.932 708.138 213.939 708.233 213.949V215.653C708.176 215.639 708.046 215.618 707.842 215.589C707.643 215.556 707.433 215.54 707.21 215.54C706.68 215.54 706.206 215.651 705.79 215.874C705.378 216.091 705.051 216.394 704.809 216.783C704.573 217.166 704.454 217.604 704.454 218.097V225H702.778ZM713.43 225.256C712.739 225.256 712.111 225.125 711.548 224.865C710.984 224.6 710.537 224.219 710.205 223.722C709.874 223.22 709.708 222.614 709.708 221.903C709.708 221.278 709.831 220.772 710.078 220.384C710.324 219.991 710.653 219.683 711.065 219.46C711.477 219.238 711.931 219.072 712.428 218.963C712.93 218.849 713.435 218.759 713.941 218.693C714.604 218.608 715.142 218.544 715.553 218.501C715.97 218.454 716.273 218.376 716.463 218.267C716.657 218.158 716.754 217.969 716.754 217.699V217.642C716.754 216.941 716.562 216.397 716.178 216.009C715.8 215.62 715.224 215.426 714.453 215.426C713.652 215.426 713.025 215.601 712.57 215.952C712.116 216.302 711.796 216.676 711.612 217.074L710.021 216.506C710.305 215.843 710.684 215.327 711.157 214.957C711.635 214.583 712.156 214.323 712.72 214.176C713.288 214.025 713.847 213.949 714.396 213.949C714.746 213.949 715.149 213.991 715.603 214.077C716.062 214.157 716.505 214.325 716.931 214.581C717.362 214.837 717.72 215.223 718.004 215.739C718.288 216.255 718.43 216.946 718.43 217.812V225H716.754V223.523H716.669C716.555 223.759 716.365 224.013 716.1 224.283C715.835 224.553 715.482 224.782 715.042 224.972C714.602 225.161 714.064 225.256 713.43 225.256ZM713.686 223.75C714.348 223.75 714.907 223.62 715.362 223.359C715.821 223.099 716.167 222.763 716.399 222.351C716.635 221.939 716.754 221.506 716.754 221.051V219.517C716.683 219.602 716.526 219.68 716.285 219.751C716.048 219.818 715.774 219.877 715.461 219.929C715.153 219.976 714.853 220.019 714.559 220.057C714.27 220.09 714.036 220.118 713.856 220.142C713.42 220.199 713.013 220.291 712.634 220.419C712.26 220.542 711.957 220.729 711.725 220.98C711.498 221.226 711.384 221.562 711.384 221.989C711.384 222.571 711.6 223.011 712.031 223.31C712.466 223.603 713.018 223.75 713.686 223.75ZM721.489 225V214.091H723.108V215.739H723.222C723.421 215.199 723.781 214.761 724.302 214.425C724.823 214.089 725.41 213.92 726.063 213.92C726.186 213.92 726.34 213.923 726.525 213.928C726.709 213.932 726.849 213.939 726.944 213.949V215.653C726.887 215.639 726.757 215.618 726.553 215.589C726.354 215.556 726.144 215.54 725.921 215.54C725.391 215.54 724.917 215.651 724.501 215.874C724.089 216.091 723.762 216.394 723.52 216.783C723.284 217.166 723.165 217.604 723.165 218.097V225H721.489ZM730.342 229.091C730.058 229.091 729.805 229.067 729.582 229.02C729.36 228.977 729.206 228.935 729.121 228.892L729.547 227.415C729.954 227.519 730.314 227.557 730.626 227.528C730.939 227.5 731.216 227.36 731.457 227.109C731.703 226.863 731.928 226.463 732.132 225.909L732.444 225.057L728.41 214.091H730.229L733.24 222.784H733.354L736.365 214.091H738.183L733.552 226.591C733.344 227.154 733.086 227.621 732.778 227.99C732.47 228.364 732.113 228.641 731.706 228.821C731.303 229.001 730.849 229.091 730.342 229.091Z" fill="#A7A7A7"/>
</g>
<defs>
<linearGradient id="paint0_linear_2_104" x1="512.841" y1="127.94" x2="911.107" y2="318.635" gradientUnits="userSpaceOnUse">
<stop stop-color="#0F0F0F"/>
<stop offset="1" stop-color="#0F0F0F"/>
</linearGradient>
</defs>
</svg>
